<svg xmlns="http://www.w3.org/2000/svg" xmlns:xlink="http://www.w3.org/1999/xlink" version="1.1" x="0px" y="0px" viewBox="0 0 96 120" enable-background="new 0 0 96 96" xml:space="preserve"><path d="M87.863,42.518H48.21V28.714c0-0.521-0.266-0.998-0.709-1.275c-0.237-0.146-0.511-0.225-0.791-0.225 c-0.23,0-0.462,0.055-0.671,0.159L7.461,46.662c-0.509,0.257-0.824,0.771-0.824,1.34c0,0.57,0.316,1.085,0.828,1.342l38.569,19.285  c0.456,0.23,1.024,0.206,1.466-0.064c0.437-0.271,0.709-0.76,0.709-1.273V53.484h39.654c0.826,0,1.5-0.672,1.5-1.5v-7.966 C89.363,43.191,88.689,42.518,87.863,42.518z"/></svg>